HIERARCHY
ROOT Hips
{
	OFFSET -3.958830 18.904000 13.208200
	CHANNELS 6 Xposition Yposition Zposition Zrotation Yrotation Xrotation 
	JOINT LHipJoint
	{
		OFFSET 0.000000 0.000000 0.000000
		CHANNELS 3 Zrotation Yrotation Xrotation
		JOINT LeftUpLeg
		{
			OFFSET 1.800000 -1.400000 0.085000
			CHANNELS 3 Zrotation Yrotation Xrotation
			JOINT LeftLeg
			{
				OFFSET 2.215000 -6.000000 0.000000
				CHANNELS 3 Zrotation Yrotation Xrotation
				JOINT LeftFoot
				{
					OFFSET 2.500000 -6.900000 0.000000
					CHANNELS 3 Zrotation Yrotation Xrotation
					JOINT LeftToeBase
					{
						OFFSET 0.200000 -0.500000 1.950000
						CHANNELS 3 Zrotation Yrotation Xrotation
						End Site
						{
							OFFSET 0.000000 0.000000 0.000000
						}
					}
				}
			}
		}
	}
	JOINT RHipJoint
	{
		OFFSET 0.000000 0.000000 0.000000
		CHANNELS 3 Zrotation Yrotation Xrotation
		JOINT RightUpLeg
		{
			OFFSET -1.800000 -1.400000 0.085000
			CHANNELS 3 Zrotation Yrotation Xrotation
			JOINT RightLeg
			{
				OFFSET -2.215000 -6.000000 0.000000
				CHANNELS 3 Zrotation Yrotation Xrotation
				JOINT RightFoot
				{
					OFFSET -2.500000 -6.900000 0.000000
					CHANNELS 3 Zrotation Yrotation Xrotation
					JOINT RightToeBase
					{
						OFFSET -0.200000 -0.500000 1.950000
						CHANNELS 3 Zrotation Yrotation Xrotation
						End Site
						{
							OFFSET 0.000000 0.000000 0.000000
						}
					}
				}
			}
		}
	}
	JOINT LowerBack
	{
		OFFSET 0.000000 0.000000 0.000000
		CHANNELS 3 Zrotation Yrotation Xrotation
		JOINT Spine
		{
			OFFSET -0.087000 1.940000 -0.288900
			CHANNELS 3 Zrotation Yrotation Xrotation
			JOINT Spine1
			{
				OFFSET 0.000000 1.950000 0.060000
				CHANNELS 3 Zrotation Yrotation Xrotation
				JOINT Neck
				{
					OFFSET 0.000000 0.000000 0.000000
					CHANNELS 3 Zrotation Yrotation Xrotation
					JOINT Neck1
					{
						OFFSET 0.000000 1.600000 0.340000
						CHANNELS 3 Zrotation Yrotation Xrotation
						JOINT Head
						{
							OFFSET 0.000000 1.667000 -0.240000
							CHANNELS 3 Zrotation Yrotation Xrotation
							End Site
							{
								OFFSET 0.000000 0.000000 0.000000
							}
						}
					}
				}
				JOINT LeftShoulder
				{
					OFFSET 0.000000 0.000000 0.000000
					CHANNELS 3 Zrotation Yrotation Xrotation
					JOINT LeftArm
					{
						OFFSET 2.700000 1.550000 -0.730000
						CHANNELS 3 Zrotation Yrotation Xrotation
						JOINT LeftForeArm
						{
							OFFSET 5.450000 0.000000 0.000000
							CHANNELS 3 Zrotation Yrotation Xrotation
							JOINT LeftHand
							{
								OFFSET 3.450000 0.000000 0.000000
								CHANNELS 3 Zrotation Yrotation Xrotation
								JOINT LeftHandIndex1
								{
									OFFSET 0.750000 0.000000 0.000000
									CHANNELS 3 Zrotation Yrotation Xrotation
									End Site
									{
										OFFSET 0.000000 0.000000 0.000000
									}
								}
							}
						}
					}
				}
				JOINT RightShoulder
				{
					OFFSET 0.000000 0.000000 0.000000
					CHANNELS 3 Zrotation Yrotation Xrotation
					JOINT RightArm
					{
						OFFSET -2.700000 1.550000 -0.730000
						CHANNELS 3 Zrotation Yrotation Xrotation
						JOINT RightForeArm
						{
							OFFSET -5.450000 0.000000 0.000000
							CHANNELS 3 Zrotation Yrotation Xrotation
							JOINT RightHand
							{
								OFFSET -3.450000 0.000000 0.000000
								CHANNELS 3 Zrotation Yrotation Xrotation
								JOINT RightHandIndex1
								{
									OFFSET -0.750000 0.000000 0.000000
									CHANNELS 3 Zrotation Yrotation Xrotation
									End Site
									{
										OFFSET 0.000000 0.000000 0.000000
									}
								}
							}
						}
					}
				}
			}
		}
	}
}
MOTION
Frames: 8
Frame Time: 0.016667
-0.797440 13.893620 -3.566080 -76.426244 33.679589 -70.462539 -15.868955 11.882222 4.611590 0.534993 -12.742937 -31.896166 -15.642259 14.328406 42.167032 0.055330 9.232391 1.213716 -0.123130 -0.448030 -0.018480 17.989920 -7.937373 4.110658 -14.105280 7.173774 -43.862400 0.622875 -20.832452 85.689221 -2.403071 -14.004394 -0.176607 -0.052160 0.465480 0.116450 -1.995004 -5.294103 -9.135559 -3.379485 5.202249 52.252031 5.993532 4.181781 17.704832 0.771359 9.396398 -15.354126 14.652718 -5.050902 52.579822 14.420680 -2.188500 -6.254060 -9.035339 -22.134109 6.667949 -32.119673 -11.366418 -0.698621 11.863624 -3.394238 -2.024944 -4.187566 2.334899 0.807810 0.167020 -0.074310 -0.109710 6.336083 16.540273 13.008615 41.254529 -14.089261 -7.831553 -6.995924 -4.648194 1.368032 2.347930 -0.746200 -0.576960 0.474320 0.477520 -0.308780 
-0.801490 13.870670 -3.559140 -75.428972 34.160458 -69.519575 -15.887074 11.586248 4.712182 0.701100 -13.465046 -33.137875 -17.357488 15.267238 42.668482 0.167590 9.568612 1.111171 -0.137060 -0.458390 -0.023180 18.021078 -7.676102 4.287690 -16.145562 7.004704 -44.633862 5.855828 -24.199745 82.253202 -2.413163 -14.145864 -0.227691 -0.057260 0.457730 0.102420 -1.989991 -5.237704 -9.286097 -4.245142 5.349058 51.449748 5.521600 4.127871 17.529918 0.856317 9.295444 -15.265335 14.433524 -4.598120 52.474648 13.860540 -1.782260 -5.539670 -9.152825 -21.492417 6.634699 -31.789361 -11.066580 -0.547244 11.440565 -3.375012 -1.921576 -4.188730 2.344514 0.785340 0.166280 -0.086850 -0.115850 6.308309 15.926738 12.822911 39.666140 -13.677044 -7.360717 -8.083776 -4.380078 1.383666 2.365589 -0.774551 -0.576720 0.462620 0.475760 -0.309120 
-0.796650 13.849220 -3.560420 -74.970348 36.052827 -68.867225 -15.937930 11.083688 4.854992 -0.295357 -15.174027 -34.918788 -18.577593 16.174290 44.061514 0.342326 9.964535 1.018230 -0.138560 -0.460740 -0.022470 18.067971 -7.180996 4.645935 -21.552556 5.438674 -45.721511 14.880067 -30.348509 77.119098 -2.526119 -14.566569 -0.334468 -0.068350 0.461120 0.094260 -1.934127 -5.335594 -9.553454 -6.136559 5.547731 50.738221 5.267315 3.452833 17.488334 0.759467 9.422807 -15.416132 14.750617 -4.460175 52.339071 14.231940 -1.863660 -4.710780 -9.866110 -21.286594 6.781063 -30.663381 -10.157122 -0.575633 11.101411 -3.702110 -1.836822 -4.174375 2.360798 0.757400 0.163340 -0.094170 -0.103450 7.234472 15.360847 12.843054 35.552622 -13.881898 -6.540115 -9.646651 -3.181593 1.268330 2.369879 -0.814960 -0.563870 0.453900 0.456870 -0.295870 
-0.800450 13.769270 -3.561350 -74.270040 36.472046 -67.808067 -15.930280 10.397991 4.987053 0.194602 -16.650064 -37.911896 -20.454800 17.576383 45.589250 0.559798 10.548682 0.886177 -0.171840 -0.495340 -0.069640 18.196963 -6.650644 5.128347 -26.656004 4.077534 -47.533206 24.989314 -36.328501 71.262232 -2.626914 -14.815947 -0.359008 -0.091050 0.497370 0.069100 -2.145182 -4.917531 -9.953736 -4.898153 3.999284 50.188436 2.700663 2.632149 16.687444 1.477149 8.892136 -15.262155 13.544593 -3.642053 51.437128 13.858800 -2.352890 -2.680740 -10.266302 -20.194062 6.601535 -29.839892 -9.507500 -0.452057 10.419297 -4.092413 -1.708011 -4.177368 2.381695 0.698980 0.179750 -0.142140 -0.078490 6.349677 14.190556 12.627631 32.146734 -13.480779 -5.945868 -11.092017 -1.803738 1.077075 2.378933 -0.860932 -0.564070 0.452490 0.452090 -0.268420 
-0.817880 13.632950 -3.568210 -73.155108 35.401420 -65.820613 -15.869388 9.710802 5.121888 0.488857 -17.773325 -42.225019 -18.367534 17.592237 48.747235 0.669126 10.909229 0.827305 -0.216090 -0.537820 -0.182270 18.383814 -6.214213 5.608688 -30.164099 3.089494 -50.663643 35.558086 -41.209724 64.779341 -2.666476 -14.700973 -0.261958 -0.115190 0.597000 0.069150 -2.562496 -4.203114 -10.356305 -1.181342 1.172112 49.503682 -0.800203 1.754994 15.042678 2.279386 7.243773 -14.271189 9.789922 -2.449009 49.251463 14.525810 -4.440530 -1.583210 -10.793549 -17.375666 5.524695 -30.001785 -9.973117 0.066991 9.526396 -4.376256 -1.612794 -4.215862 2.407722 0.628600 0.220000 -0.213240 -0.028200 5.578475 11.892189 11.889168 26.188293 -12.892946 -5.136807 -12.886183 0.078338 0.765006 2.363965 -0.903154 -0.560230 0.469520 0.474150 -0.201950 
-0.801250 13.532680 -3.584430 -71.383918 35.132392 -64.403155 -15.836323 9.320653 5.239732 -0.933753 -18.617042 -44.882469 -15.485914 16.489505 50.065747 0.620593 10.707297 0.916902 -0.273910 -0.593660 -0.238120 18.490909 -6.009900 5.842656 -32.499164 2.277100 -52.069611 45.225061 -43.388088 57.606145 -2.573110 -14.074300 -0.060273 -0.138280 0.649020 0.028780 -2.795986 -3.774919 -10.555468 0.551984 -0.024102 49.092920 -3.160657 1.529310 14.282334 2.854269 6.368102 -14.103668 7.906522 -1.920074 48.383070 14.784960 -5.463210 -0.797380 -11.181862 -16.607927 5.296769 -30.179036 -9.764230 0.233652 9.287467 -4.342286 -1.537965 -4.229825 2.374151 0.600120 0.234670 -0.261400 -0.027200 4.885772 11.506551 11.813918 22.169450 -13.102361 -5.181910 -16.319728 1.516001 0.541692 2.356066 -0.932205 -0.591660 0.507930 0.499330 -0.180290 
-0.778020 13.473700 -3.624390 -67.469666 34.905935 -63.525540 -15.807867 9.412233 5.073347 -2.641712 -17.622533 -43.993397 -14.882424 14.888074 45.971080 0.407392 9.634800 1.248077 -0.239550 -0.550970 -0.234280 18.501346 -6.057138 5.935584 -33.259346 3.042559 -51.676042 54.186531 -42.526982 50.060203 -2.478623 -13.286622 0.147508 -0.123280 0.626400 0.035060 -2.893047 -3.551387 -10.493257 0.277037 0.650786 50.309640 -4.812221 2.357654 14.696231 3.296783 5.672825 -14.049322 6.377857 -1.747265 47.355000 15.104100 -6.027310 -1.938610 -11.657340 -16.466258 5.070881 -29.404740 -10.147200 0.489773 8.864765 -3.862561 -1.450350 -4.203753 2.409726 0.594870 0.206960 -0.242990 -0.006860 4.378653 12.202223 12.082228 18.221568 -13.478482 -5.392869 -19.768973 2.600452 0.241807 2.353280 -1.018900 -0.563660 0.495480 0.475960 -0.164340 
-0.748010 13.377960 -3.630840 -65.576161 35.265357 -63.021015 -15.766129 9.385600 4.923442 -3.994057 -17.108639 -42.974613 -16.738861 13.100639 38.573325 0.141688 8.160653 1.747310 -0.215330 -0.525320 -0.230340 18.543721 -6.065353 6.073254 -34.892889 2.114777 -51.766790 66.763697 -43.114515 41.567754 -2.437364 -12.516449 0.391238 -0.121550 0.609470 0.024720 -3.073957 -3.276396 -10.523391 1.176668 -0.045454 50.504277 -6.689601 2.158229 14.579754 3.787571 4.809303 -14.143531 4.468277 -1.702630 47.037648 14.921680 -6.798380 -2.478710 -11.602031 -16.277338 5.080842 -29.351834 -10.037958 0.689347 7.913560 -3.595345 -1.329739 -4.160032 2.419341 0.598530 0.180180 -0.230080 0.018690 3.380113 12.597305 12.189963 14.736197 -14.215005 -5.913032 -23.300755 4.307436 -0.218426 2.347513 -1.092642 -0.548730 0.499080 0.448570 -0.152640 
